<?xml version="1.0" encoding="utf-8"?>
<!-- Generator: Adobe Illustrator 21.1.0, SVG Export Plug-In . SVG Version: 6.00 Build 0)  -->
<svg version="1.0" id="레이어_1" xmlns="http://www.w3.org/2000/svg" xmlns:xlink="http://www.w3.org/1999/xlink" x="0px"
	 y="0px" viewBox="0 0 91.696 79.196" enable-background="new 0 0 91.696 79.196" xml:space="preserve">
<g>
	<path fill="none" stroke="#BF8465" stroke-linecap="round" stroke-miterlimit="10" d="M77.37,20.696H71V14.98
		c-5.67-3.957-12.561-6.284-20-6.284c-10.32,0-19.594,4.468-26,11.573v46.853c6.406,7.105,15.68,11.573,26,11.573
		c19.33,0,35-15.67,35-35C86,34.889,82.74,26.848,77.37,20.696z"/>
	<polygon fill="none" stroke="#999999" stroke-linecap="round" stroke-miterlimit="10" points="91.153,11.535 89.321,20.696 
		71,20.696 71,2.375 80.161,0.543 	"/>
	<circle fill="none" stroke="#BF8465" stroke-linecap="round" stroke-miterlimit="10" cx="51" cy="43.696" r="26"/>
	<line fill="none" stroke="#999999" stroke-linecap="round" stroke-miterlimit="10" x1="25" y1="78.696" x2="25" y2="8.696"/>
	<line fill="none" stroke="#999999" stroke-linecap="round" stroke-miterlimit="10" x1="16" y1="24.896" x2="16" y2="78.696"/>
	<line fill="none" stroke="#999999" stroke-linecap="round" stroke-miterlimit="10" x1="15" y1="8.696" x2="0.5" y2="33.196"/>
	<line fill="none" stroke="#999999" stroke-linecap="round" stroke-miterlimit="10" x1="25" y1="8.696" x2="10.5" y2="33.196"/>
</g>
</svg>
