<?xml version="1.0" encoding="utf-8"?>
<!-- Generator: Adobe Illustrator 21.1.0, SVG Export Plug-In . SVG Version: 6.00 Build 0)  -->
<svg version="1.0" id="레이어_1" xmlns="http://www.w3.org/2000/svg" xmlns:xlink="http://www.w3.org/1999/xlink" x="0px"
	 y="0px" viewBox="0 0 85 104.349" enable-background="new 0 0 85 104.349" xml:space="preserve">
<g>
	<path fill="none" stroke="#BF8465" stroke-linecap="round" stroke-linejoin="round" stroke-miterlimit="10" d="M39.076,34.03
		c-4.836,2.119-8.902,5.666-11.666,10.11c2.547-0.833,5.264-1.29,8.09-1.29c14.359,0,26,11.641,26,26c0,14.359-11.641,26-26,26
		c-14.359,0-26-11.641-26-26c0-5.93,1.989-11.394,5.332-15.768c0.83-6.09,3.221-11.681,6.764-16.355
		C9.185,42.106,0.5,54.461,0.5,68.849c0,19.33,15.67,35,35,35s35-15.67,35-35C70.5,50.726,56.726,35.821,39.076,34.03z"/>
	<path fill="none" stroke="#999999" stroke-linecap="round" stroke-linejoin="round" stroke-miterlimit="10" d="M63.404,89.972
		C75.815,84.592,84.5,72.237,84.5,57.849c0-19.33-15.67-35-35-35s-35,15.67-35,35c0,18.123,13.774,33.028,31.424,34.819"/>
	<path fill="none" stroke="#999999" stroke-linecap="round" stroke-linejoin="round" stroke-miterlimit="10" d="M57.59,82.559
		c-2.547,0.833-5.264,1.29-8.09,1.29c-14.359,0-26-11.641-26-26c0-14.359,11.641-26,26-26c14.359,0,26,11.641,26,26
		c0,5.93-1.989,11.394-5.332,15.768"/>
	<g>
		<path fill="none" stroke="#999999" stroke-linecap="round" stroke-linejoin="round" stroke-miterlimit="10" d="M12.833,29.806
			c-3.038,0-5.5-3.731-5.5-8.333c0,4.602-2.462,8.333-5.5,8.333"/>
		<path fill="none" stroke="#999999" stroke-linecap="round" stroke-linejoin="round" stroke-miterlimit="10" d="M12.833,29.806
			c-3.038,0-5.5,3.731-5.5,8.333c0-4.602-2.462-8.333-5.5-8.333"/>
	</g>
	<g>
		<path fill="none" stroke="#999999" stroke-linecap="round" stroke-linejoin="round" stroke-miterlimit="10" d="M27.615,13.047
			c-4.574,0-8.281-5.618-8.281-12.547c0,6.93-3.708,12.547-8.281,12.547"/>
		<path fill="none" stroke="#999999" stroke-linecap="round" stroke-linejoin="round" stroke-miterlimit="10" d="M27.615,13.047
			c-4.574,0-8.281,5.618-8.281,12.547c0-6.93-3.708-12.547-8.281-12.547"/>
	</g>
</g>
</svg>
